PathFileType	4	(X/Y/Z)	C:/Users/beibeiliu/ov580/test_trc/User1\sequence.18_training_dense_right.trc
DataRate	CameraRate	NumFrames	NumMarkers	Units	OrigDataRate	OrigDataStartFrame	OrigNumFrames
120	120	16	19	mm	120	251	286
Frame#	Time	ThumbCMC			ThumbMCP			ThumbIP			ThumbTip			IndexMCP			IndexPIP			IndexTip			MiddleMCP			MiddlePIP			MiddleTip			RingMCP			RingPIP			RingTip			PinkyMCP			PinkyPIP			PinkyTip			BackHand1			BackHand2			BackHand3	
		X0	Y0	Z0	X1	Y1	Z1	X2	Y2	Z2	X3	Y3	Z3	X4	Y4	Z4	X5	Y5	Z5	X6	Y6	Z6	X7	Y7	Z7	X8	Y8	Z8	X9	Y9	Z9	X10	Y10	Z10	X11	Y11	Z11	X12	Y12	Z12	X13	Y13	Z13	X14	Y14	Z14	X15	Y15	Z15	X16	Y16	Z16	X17	Y17	Z17	X18	Y18	Z18	
250	2.08333	155.928	25.2726	57.7845	153.164	27.5878	17.5241	171.634	18.1874	-8.26662	187.722	-8.38624	-13.5044	212.837	43.9642	-0.457717	201.206	30.0876	-24.3416	172.667	20.5515	-5.92494	231.947	22.7261	1.78087	214.942	13.0865	-27.5135	186.379	0.862913	-2.97209	234.862	-4.60589	4.77361	216.314	-11.7655	-22.5141	187.958	-19.6414	-0.876904	230.018	-24.8608	13.6923	212.568	-26.2735	-11.6919	184.469	-29.9795	4.43459	214.815	-9.48397	66.248	197.011	-18.1324	90.4597	194.322	18.9079	74.3028	
251	2.09167	153.891	27.2387	61.7346	155.874	28.7792	23.0094	173.326	21.3453	-1.2634	194.762	-3.50733	-11.1015	213.659	49.0612	10.7059	201.067	39.3384	-20.2389	174.738	23.514	2.39586	233.243	31.4343	8.84341	218.043	20.6961	-22.0089	188.822	7.08003	-1.41861	237.3	5.21282	8.80576	221.668	-5.8567	-18.818	193.004	-13.8229	0.503586	235.389	-19.6573	18.109	217.087	-19.5032	-6.32829	187.175	-24.6303	7.63289	218.308	-4.53081	68.9759	199.341	-19.3797	93.0236	193.634	19.9398	78.4319	
252	2.1	154.775	27.2008	63.4698	160.424	33.4179	22.9433	178.148	25.0322	0.14092	194.188	1.75307	-6.38678	220.013	48.7005	15.3633	206.231	40.5009	-15.3017	176.448	29.346	4.12625	237.001	33.7974	12.9945	225.492	24.65	-17.6454	192.509	10.9182	5.19138	239.938	8.6953	13.5034	225.441	-0.315878	-15.3852	195.919	-10.4883	2.57789	235.602	-12.1638	22.2958	222.472	-16.6273	-4.31371	191.792	-24.217	7.76025	219.848	-5.99022	73.6058	199.66	-19.2527	97.3531	194.924	19.1723	83.5692	
253	2.10833	158.12	30.7403	64.8757	160.243	33.7799	27.8931	183.135	29.0142	0.423355	201.204	3.81283	-7.40354	219.679	56.0053	18.3593	208.833	46.8166	-12.2025	181.134	33.2868	2.85895	237.905	38.7783	17.3648	225.186	28.1693	-14.7035	194.042	14.8283	6.37415	244.008	10.8081	15.9677	228.368	5.67508	-10.9923	198.392	-5.53517	4.21356	238.966	-12.8925	25.5108	226.791	-10.6065	-0.580765	194.137	-19.0103	8.15496	220.133	-3.80176	73.6684	199.066	-13.2674	100.625	195.689	21.077	87.4443	
254	2.11667	157.557	29.4189	67.9157	163.15	35.4016	28.9675	183.143	31.0652	6.24665	201.857	7.53043	0.593239	223.353	57.15	18.2401	212.474	48.0515	-8.16266	179.715	37.2667	9.45812	239.527	41.8543	21.3614	227.548	34.3875	-11.6478	196.769	17.6856	9.78885	244.886	15.2826	18.9088	228.358	10.0616	-9.96723	199.98	-1.78152	7.82568	242.423	-10.2147	27.8534	224.972	-4.88919	2.23997	198.331	-12.8916	11.0497	220.389	-3.69935	78.4783	200.077	-9.82784	100.499	193.416	24.6259	89.5247	
255	2.125	155.311	32.2083	69.5175	164.524	39.5832	28.1835	182.933	35.127	3.25584	204.598	9.06809	-3.17701	220.491	60.969	23.7081	209.776	53.4777	-8.25756	179.637	38.7235	10.5511	240.662	45.3605	20.8928	228.487	38.0938	-10.0775	199.137	21.3237	6.46044	243.882	18.2267	22.619	227.188	12.053	-9.18816	201.991	2.4423	6.84691	242.626	-6.73599	28.9555	227.757	-3.37058	1.97166	198.673	-8.68565	10.314	221.168	1.46507	76.301	198.394	-10.8379	103.232	193.323	28.4128	88.5496	
256	2.13333	159.303	34.474	67.778	162.21	38.2398	28.2944	181.24	34.2964	4.66783	198.418	13.3063	-2.47989	219.014	62.5637	19.496	207.784	57.0324	-9.71897	179.055	39.7938	6.83207	238.755	46.0388	20.9396	225.405	39.954	-12.1425	194.227	23.5965	7.29875	241.975	26.1097	16.7344	228.577	14.4358	-9.6545	200.265	4.22844	5.07103	241.158	-1.5908	23.8157	223.037	0.536525	1.04564	196.352	-7.19271	7.69929	219.628	6.59994	76.419	201.903	-5.62035	101.347	195.333	27.2112	90.9856	
257	2.14167	154.103	35.7424	67.4608	158.211	36.0858	27.4814	172.755	32.431	0.755854	195.135	12.0357	-7.23377	211.436	67.3707	13.201	199.121	52.8461	-13.8409	174.803	38.3907	3.73203	232.313	52.2661	12.6665	218.697	43.0864	-17.2419	190.516	22.1855	3.42124	238.26	27.3813	12.2272	221.254	16.6866	-14.6828	195.902	5.65838	2.47079	236.338	-1.0673	19.4254	220.95	-0.820537	-3.91582	189.928	-9.05321	8.90223	221.881	8.58846	69.5067	205.016	-3.83271	98.0814	194.487	30.4153	86.5511	
258	2.15	153.596	33.2014	62.615	152.159	35.0674	18.2913	167.209	27.6159	-5.66764	188.962	6.14646	-16.8051	207.586	62.863	4.88066	191.193	48.4386	-23.0581	170.932	32.1297	-4.15338	228.761	45.5946	1.8717	207.534	37.5845	-27.4891	184.172	18.2066	-2.41696	235.745	20.7147	-0.119488	213.161	11.6682	-23.0556	190.476	0.0318676	1.22675	230.295	-3.13762	14.3597	212.114	-8.88746	-11.3961	184.301	-10.0816	7.42153	220.938	11.3314	64.9916	207.608	-3.47736	90.9413	195.144	35.5854	79.0351	
259	2.15833	151.751	32.5048	55.1461	149.065	25.558	14.5343	160.303	18.4258	-11.2443	177.41	-1.21155	-25.2068	197.329	57.3064	-11.3667	181.312	40.1039	-33.394	158.934	25.0682	-9.40575	221.682	37.9081	-14.7044	199.211	27.8029	-37.4096	178.646	7.34244	-12.3467	226.096	16.4492	-7.98708	207.346	1.35728	-29.9417	182.719	-6.11009	-7.01015	226.958	-11.2222	1.49267	200.861	-17.4794	-15.5373	177.085	-17.5923	3.13604	222.162	10.3544	53.3985	206.745	-2.26308	86.0913	190.609	36.2041	69.8347	
260	2.16667	147.025	28.613	49.1848	140.341	16.959	12.1889	149.891	7.96198	-17.5769	169.119	-13.5794	-33.6704	190.81	42.992	-24.1258	174.914	23.6065	-42.2057	152.016	12.853	-14.696	212.248	28.8348	-21.7932	191.996	12.0418	-46.7425	169.183	-1.81872	-16.7558	217.793	6.44501	-19.1246	194.846	-10.7567	-36.5438	175.318	-18.1359	-8.87601	220.506	-19.11	-5.74331	196.239	-28.3098	-18.9692	172.754	-27.4697	2.8626	216.782	7.4103	46.7904	205.963	2.81707	78.7606	192.822	35.1533	56.6452	
261	2.175	145.837	23.7565	47.0421	136.379	9.32779	7.39571	147.676	-3.87556	-19.1541	165.438	-23.5027	-28.0287	180.83	33.1512	-29.8486	162.99	14.0122	-48.5167	145.181	-0.0118655	-18.7149	202.287	19.9832	-32.9145	182.784	-3.52921	-48.9279	160.788	-11.3062	-15.2348	211.513	-3.94702	-25.9151	190.861	-24.1514	-38.5563	168.678	-27.2952	-8.89118	214.72	-23.929	-4.06013	190.161	-38.5999	-19.2514	167.516	-30.9069	6.18955	214.888	7.34853	38.6696	203.779	6.45997	72.4257	186.731	32.6899	50.7338	
262	2.18333	141.082	20.5866	42.7959	126.715	0.380265	12.272	134.069	-13.9314	-15.5912	155.16	-35.6798	-25.5292	169.455	21.8504	-35.9133	154.829	-2.67145	-46.3509	137.435	-12.4296	-16.2848	194.401	6.80032	-35.8662	171.091	-17.1018	-48.891	155.663	-22.6676	-15.2083	204.386	-11.69	-25.8393	179.91	-33.5665	-37.3978	164.592	-38.7886	-6.51738	208.545	-31.7303	-7.3647	184.923	-45.575	-18.0165	163.926	-42.3845	5.20724	211.091	2.70395	37.4534	205.986	6.56764	69.2962	184.787	31.0421	43.6701	
263	2.19167	136.399	14.3812	43.3135	120.932	-7.17209	14.5984	130.265	-25.2834	-12.0958	147.821	-47.1364	-19.5213	157.6	10.1823	-36.2875	138.574	-14.7467	-45.323	126.11	-22.7315	-15.0871	183.633	-3.5583	-35.579	162.496	-27.5558	-48.8395	143.321	-31.6906	-12.8948	194.042	-21.5303	-28.1058	172.986	-47.9234	-35.0226	158.613	-49.6169	-4.85683	202.587	-39.6795	-6.10682	177.357	-55.4578	-14.1208	156.392	-49.8263	9.23972	203.929	0.30062	32.8966	202.08	5.53758	66.4419	176.157	24.9531	43.2712	
264	2.2	128.914	12.643	50.0621	113.889	-10.6997	20.794	123.049	-31.4762	-6.67365	140.411	-51.5109	-9.32263	148.227	0.39937	-35.431	129.423	-22.32	-41.9564	119.736	-29.8618	-9.08176	174.022	-11.0376	-37.4316	152.613	-36.7368	-48.7472	135.697	-42.1972	-11.2076	186.633	-30.0994	-26.6722	160.204	-52.5154	-33.1899	151.084	-53.6681	1.78124	192.99	-43.2864	-6.53527	168.346	-60.4489	-13.1666	151.484	-52.7631	15.4342	200.285	-6.08645	31.9623	197.409	2.39621	61.4409	171.649	21.4184	41.3999	
265	2.20833	131.321	11.3547	48.393	111.966	-8.74711	18.9512	121.293	-30.3588	-5.42394	141.195	-53.6358	-9.05317	144.787	-3.2742	-33.0808	125.021	-28.299	-39.6727	111.652	-31.9244	-5.22621	166.522	-14.6687	-40.002	145.95	-38.6285	-49.0256	129.364	-51.4359	-15.6019	176.475	-33.2958	-27.6673	153.201	-59.7743	-29.4177	142.797	-58.6182	-0.753088	188.753	-49.3436	-8.67754	164.489	-62.6717	-13.3227	148.553	-59.8277	17.7049	195.625	-8.63768	25.6471	196.461	2.43938	63.7062	169.188	21.6689	39.3975	
